<svg width="263" height="47" viewBox="0 0 263 47" fill="none" xmlns="http://www.w3.org/2000/svg">
<path d="M19.5365 46.896C15.8672 46.896 12.3258 46.448 8.9125 45.552C5.54183 44.6133 2.78983 43.4187 0.6565 41.968L4.8165 32.624C6.82183 33.904 9.12583 34.9707 11.7285 35.824C14.3738 36.6347 16.9978 37.04 19.6005 37.04C21.3498 37.04 22.7578 36.8907 23.8245 36.592C24.8912 36.2507 25.6592 35.824 26.1285 35.312C26.6405 34.7573 26.8965 34.1173 26.8965 33.392C26.8965 32.368 26.4272 31.5573 25.4885 30.96C24.5498 30.3627 23.3338 29.872 21.8405 29.488C20.3472 29.104 18.6832 28.72 16.8485 28.336C15.0565 27.952 13.2432 27.4613 11.4085 26.864C9.6165 26.2667 7.97383 25.4987 6.4805 24.56C4.98717 23.5787 3.77117 22.32 2.8325 20.784C1.89383 19.2053 1.4245 17.2213 1.4245 14.832C1.4245 12.144 2.14983 9.712 3.6005 7.536C5.09383 5.36 7.3125 3.61067 10.2565 2.288C13.2005 0.965331 16.8698 0.303997 21.2645 0.303997C24.2085 0.303997 27.0885 0.645331 29.9045 1.328C32.7632 1.968 35.3018 2.928 37.5205 4.208L33.6165 13.616C31.4832 12.464 29.3712 11.6107 27.2805 11.056C25.1898 10.4587 23.1632 10.16 21.2005 10.16C19.4512 10.16 18.0432 10.352 16.9765 10.736C15.9098 11.0773 15.1418 11.5467 14.6725 12.144C14.2032 12.7413 13.9685 13.424 13.9685 14.192C13.9685 15.1733 14.4165 15.9627 15.3125 16.56C16.2512 17.1147 17.4672 17.584 18.9605 17.968C20.4965 18.3093 22.1605 18.672 23.9525 19.056C25.7872 19.44 27.6005 19.9307 29.3925 20.528C31.2272 21.0827 32.8912 21.8507 34.3845 22.832C35.8778 23.7707 37.0725 25.0293 37.9685 26.608C38.9072 28.144 39.3765 30.0853 39.3765 32.432C39.3765 35.0347 38.6298 37.4453 37.1365 39.664C35.6858 41.84 33.4885 43.5893 30.5445 44.912C27.6432 46.2347 23.9738 46.896 19.5365 46.896ZM56.302 46L41.774 1.2H54.83L67.054 39.984H60.462L73.326 1.2H84.974L97.134 39.984H90.798L103.406 1.2H115.502L100.974 46H87.406L77.038 13.04H80.686L69.87 46H56.302ZM130.558 46V27.056L133.502 34.672L113.47 1.2H126.846L141.31 25.456H133.566L148.094 1.2H160.382L140.414 34.672L143.23 27.056V46H130.558ZM163.418 46V1.2H184.602C189.551 1.2 193.903 2.11733 197.658 3.952C201.412 5.78667 204.335 8.368 206.426 11.696C208.559 15.024 209.626 18.992 209.626 23.6C209.626 28.1653 208.559 32.1333 206.426 35.504C204.335 38.832 201.412 41.4133 197.658 43.248C193.903 45.0827 189.551 46 184.602 46H163.418ZM176.09 35.888H184.09C186.65 35.888 188.868 35.4187 190.746 34.48C192.666 33.4987 194.159 32.0907 195.226 30.256C196.292 28.3787 196.826 26.16 196.826 23.6C196.826 20.9973 196.292 18.7787 195.226 16.944C194.159 15.1093 192.666 13.7227 190.746 12.784C188.868 11.8027 186.65 11.312 184.09 11.312H176.09V35.888ZM216.293 46V1.2H237.477C242.426 1.2 246.778 2.11733 250.533 3.952C254.287 5.78667 257.21 8.368 259.301 11.696C261.434 15.024 262.501 18.992 262.501 23.6C262.501 28.1653 261.434 32.1333 259.301 35.504C257.21 38.832 254.287 41.4133 250.533 43.248C246.778 45.0827 242.426 46 237.477 46H216.293ZM228.965 35.888H236.965C239.525 35.888 241.743 35.4187 243.621 34.48C245.541 33.4987 247.034 32.0907 248.101 30.256C249.167 28.3787 249.701 26.16 249.701 23.6C249.701 20.9973 249.167 18.7787 248.101 16.944C247.034 15.1093 245.541 13.7227 243.621 12.784C241.743 11.8027 239.525 11.312 236.965 11.312H228.965V35.888Z" fill="#64F6D3"/>
<path d="M19.5365 46.896C15.8672 46.896 12.3258 46.448 8.9125 45.552C5.54183 44.6133 2.78983 43.4187 0.6565 41.968L4.8165 32.624C6.82183 33.904 9.12583 34.9707 11.7285 35.824C14.3738 36.6347 16.9978 37.04 19.6005 37.04C21.3498 37.04 22.7578 36.8907 23.8245 36.592C24.8912 36.2507 25.6592 35.824 26.1285 35.312C26.6405 34.7573 26.8965 34.1173 26.8965 33.392C26.8965 32.368 26.4272 31.5573 25.4885 30.96C24.5498 30.3627 23.3338 29.872 21.8405 29.488C20.3472 29.104 18.6832 28.72 16.8485 28.336C15.0565 27.952 13.2432 27.4613 11.4085 26.864C9.6165 26.2667 7.97383 25.4987 6.4805 24.56C4.98717 23.5787 3.77117 22.32 2.8325 20.784C1.89383 19.2053 1.4245 17.2213 1.4245 14.832C1.4245 12.144 2.14983 9.712 3.6005 7.536C5.09383 5.36 7.3125 3.61067 10.2565 2.288C13.2005 0.965331 16.8698 0.303997 21.2645 0.303997C24.2085 0.303997 27.0885 0.645331 29.9045 1.328C32.7632 1.968 35.3018 2.928 37.5205 4.208L33.6165 13.616C31.4832 12.464 29.3712 11.6107 27.2805 11.056C25.1898 10.4587 23.1632 10.16 21.2005 10.16C19.4512 10.16 18.0432 10.352 16.9765 10.736C15.9098 11.0773 15.1418 11.5467 14.6725 12.144C14.2032 12.7413 13.9685 13.424 13.9685 14.192C13.9685 15.1733 14.4165 15.9627 15.3125 16.56C16.2512 17.1147 17.4672 17.584 18.9605 17.968C20.4965 18.3093 22.1605 18.672 23.9525 19.056C25.7872 19.44 27.6005 19.9307 29.3925 20.528C31.2272 21.0827 32.8912 21.8507 34.3845 22.832C35.8778 23.7707 37.0725 25.0293 37.9685 26.608C38.9072 28.144 39.3765 30.0853 39.3765 32.432C39.3765 35.0347 38.6298 37.4453 37.1365 39.664C35.6858 41.84 33.4885 43.5893 30.5445 44.912C27.6432 46.2347 23.9738 46.896 19.5365 46.896ZM56.302 46L41.774 1.2H54.83L67.054 39.984H60.462L73.326 1.2H84.974L97.134 39.984H90.798L103.406 1.2H115.502L100.974 46H87.406L77.038 13.04H80.686L69.87 46H56.302ZM130.558 46V27.056L133.502 34.672L113.47 1.2H126.846L141.31 25.456H133.566L148.094 1.2H160.382L140.414 34.672L143.23 27.056V46H130.558ZM163.418 46V1.2H184.602C189.551 1.2 193.903 2.11733 197.658 3.952C201.412 5.78667 204.335 8.368 206.426 11.696C208.559 15.024 209.626 18.992 209.626 23.6C209.626 28.1653 208.559 32.1333 206.426 35.504C204.335 38.832 201.412 41.4133 197.658 43.248C193.903 45.0827 189.551 46 184.602 46H163.418ZM176.09 35.888H184.09C186.65 35.888 188.868 35.4187 190.746 34.48C192.666 33.4987 194.159 32.0907 195.226 30.256C196.292 28.3787 196.826 26.16 196.826 23.6C196.826 20.9973 196.292 18.7787 195.226 16.944C194.159 15.1093 192.666 13.7227 190.746 12.784C188.868 11.8027 186.65 11.312 184.09 11.312H176.09V35.888ZM216.293 46V1.2H237.477C242.426 1.2 246.778 2.11733 250.533 3.952C254.287 5.78667 257.21 8.368 259.301 11.696C261.434 15.024 262.501 18.992 262.501 23.6C262.501 28.1653 261.434 32.1333 259.301 35.504C257.21 38.832 254.287 41.4133 250.533 43.248C246.778 45.0827 242.426 46 237.477 46H216.293ZM228.965 35.888H236.965C239.525 35.888 241.743 35.4187 243.621 34.48C245.541 33.4987 247.034 32.0907 248.101 30.256C249.167 28.3787 249.701 26.16 249.701 23.6C249.701 20.9973 249.167 18.7787 248.101 16.944C247.034 15.1093 245.541 13.7227 243.621 12.784C241.743 11.8027 239.525 11.312 236.965 11.312H228.965V35.888Z" fill="black" fill-opacity="0.2"/>
</svg>
